<?xml version="1.0" encoding="UTF-8"?>
<svg id="_图层_2" data-name="图层 2" xmlns="http://www.w3.org/2000/svg" viewBox="0 0 174.92 174.92">
  <defs>
    <style>
      .cls-1 {
        fill: #fff;
      }

      .cls-1, .cls-2 {
        stroke-width: 0px;
      }

      .cls-2 {
        fill: #0e0f0f;
      }
    </style>
  </defs>
  <g id="_图层_1-2" data-name="图层 1">
    <g>
      <rect class="cls-2" width="174.92" height="174.92" rx="43.65" ry="43.65"/>
      <g>
        <path class="cls-1" d="M50.03,83.71l-11.81,34.31c-.54,1.56.62,3.18,2.27,3.18h11.67c1.33,0,2.4,1.07,2.4,2.4v5.76c0,1.33-1.07,2.4-2.4,2.4h-26.48c-1.65,0-2.81-1.62-2.27-3.18l19.09-55.42c.33-.97,1.24-1.62,2.27-1.62l15.74-.02c1.1,0,2.06.74,2.33,1.81l11.74,46.06c.27,1.06,1.23,1.81,2.33,1.81h11.29c1.08,0,2.02.72,2.31,1.75l1.61,5.76c.43,1.53-.72,3.05-2.31,3.05h-21.11c-1.1,0-2.05-.74-2.33-1.81l-11.74-46.05c-.27-1.06-1.23-1.81-2.33-1.81h0c-1.02,0-1.93.65-2.26,1.62Z"/>
        <path class="cls-1" d="M122.56,43.16h-28.71c-1.6,0-2.75,1.53-2.31,3.07l7.99,27.59c.44,1.54-.71,3.07-2.31,3.07h-6.59c-1.08,0-2.03-.72-2.31-1.76l-8.31-30.2c-.29-1.04-1.23-1.76-2.31-1.76h-23.11c-1.02,0-1.93.65-2.27,1.62l-1.99,5.76c-.54,1.56.62,3.18,2.27,3.18h17.05c1.08,0,2.03.72,2.31,1.76l8.79,31.98h30.53c1.6,0,2.75-1.53,2.31-3.07l-8-27.6c-.44-1.54.71-3.07,2.31-3.07h6.93c1.05,0,1.97.68,2.29,1.67l19.96,62.68c.49,1.55-.66,3.13-2.29,3.13h-7.22c-1.01,0-1.91-.63-2.26-1.58l-6.51-17.98-.17-.45h-34.1l.13.45,2.3,8.35c.29,1.04,1.23,1.76,2.31,1.76h20.27c1.01,0,1.91.63,2.26,1.58l6.09,16.84c.34.95,1.25,1.58,2.26,1.58h29.08c1.62,0,2.78-1.58,2.29-3.13l-26.67-83.8c-.32-1-1.24-1.67-2.29-1.67Z"/>
      </g>
    </g>
  </g>
</svg>